<svg width="60" height="60" viewBox="0 0 60 60" fill="none" xmlns="http://www.w3.org/2000/svg">
<path id="Vector" d="M48.003 54H54V60H30C13.431 60 0 46.569 0 30C0 13.431 13.431 0 30 0C46.569 0 60 13.431 60 30C60.0038 34.6577 58.9215 39.2522 56.8389 43.4184C54.7563 47.5845 51.7309 51.2077 48.003 54ZM30 24C31.5913 24 33.1174 23.3679 34.2426 22.2426C35.3679 21.1174 36 19.5913 36 18C36 16.4087 35.3679 14.8826 34.2426 13.7574C33.1174 12.6321 31.5913 12 30 12C28.4087 12 26.8826 12.6321 25.7574 13.7574C24.6321 14.8826 24 16.4087 24 18C24 19.5913 24.6321 21.1174 25.7574 22.2426C26.8826 23.3679 28.4087 24 30 24ZM18 36C19.5913 36 21.1174 35.3679 22.2426 34.2426C23.3679 33.1174 24 31.5913 24 30C24 28.4087 23.3679 26.8826 22.2426 25.7574C21.1174 24.6321 19.5913 24 18 24C16.4087 24 14.8826 24.6321 13.7574 25.7574C12.6321 26.8826 12 28.4087 12 30C12 31.5913 12.6321 33.1174 13.7574 34.2426C14.8826 35.3679 16.4087 36 18 36ZM42 36C43.5913 36 45.1174 35.3679 46.2426 34.2426C47.3679 33.1174 48 31.5913 48 30C48 28.4087 47.3679 26.8826 46.2426 25.7574C45.1174 24.6321 43.5913 24 42 24C40.4087 24 38.8826 24.6321 37.7574 25.7574C36.6321 26.8826 36 28.4087 36 30C36 31.5913 36.6321 33.1174 37.7574 34.2426C38.8826 35.3679 40.4087 36 42 36ZM30 48C31.5913 48 33.1174 47.3679 34.2426 46.2426C35.3679 45.1174 36 43.5913 36 42C36 40.4087 35.3679 38.8826 34.2426 37.7574C33.1174 36.6321 31.5913 36 30 36C28.4087 36 26.8826 36.6321 25.7574 37.7574C24.6321 38.8826 24 40.4087 24 42C24 43.5913 24.6321 45.1174 25.7574 46.2426C26.8826 47.3679 28.4087 48 30 48Z" fill="#F85146"/>
</svg>
